<?xml version="1.0" standalone="no"?>
<!DOCTYPE svg PUBLIC "-//W3C//DTD SVG 20010904//EN"
 "http://www.w3.org/TR/2001/REC-SVG-20010904/DTD/svg10.dtd">
<svg version="1.0" xmlns="http://www.w3.org/2000/svg"
 width="16.000000pt" height="16.000000pt" viewBox="0 0 16.000000 16.000000"
 preserveAspectRatio="xMidYMid meet">
<metadata>
Created by potrace 1.11, written by Peter Selinger 2001-2013
</metadata>
<g transform="translate(0.000000,16.000000) scale(0.003125,-0.003125)"
fill="#000000" stroke="none">
<path d="M1635 4799 c-612 -37 -1038 -213 -1271 -522 -99 -132 -171 -328 -194
-526 -17 -141 -8 -3181 9 -3233 15 -48 67 -116 110 -145 70 -47 140 -66 246
-67 216 -1 332 82 365 263 6 34 10 601 10 1560 0 907 4 1529 10 1564 13 84 51
159 111 222 67 71 142 116 255 154 168 56 169 56 1294 56 1032 0 1035 0 1135
-22 254 -56 392 -157 459 -331 l21 -57 5 -1580 5 -1580 22 -53 c33 -81 66
-118 137 -152 123 -58 288 -63 409 -11 64 28 130 92 158 154 l24 52 0 1620 c0
1531 -1 1625 -18 1705 -58 270 -203 492 -409 631 -274 182 -598 273 -1073 298
-205 11 -1637 11 -1820 0z"/>
</g>
</svg>
